<?xml version="1.0" encoding="utf-8"?>
<!-- Generator: Adobe Illustrator 27.0.1, SVG Export Plug-In . SVG Version: 6.00 Build 0)  -->
<svg version="1.1" id="Layer_1" xmlns="http://www.w3.org/2000/svg" xmlns:xlink="http://www.w3.org/1999/xlink" x="0px" y="0px"
	 viewBox="0 0 429 429" enable-background="new 0 0 429 429" xml:space="preserve">
<g>
	<path d="M119.9,424.7c-19,0-37.1,0-55.9,0c0-108.1,0-216.1,0-324.6c-21.1,0-41.5,0-63.4,0C31.4,67.9,61.4,36.5,91.7,4.7
		c30.2,31.6,60.3,63,91.2,95.2c-21.6,0-42,0-63,0C119.9,208.2,119.9,316.2,119.9,424.7z" fill="#242748"/>
	<path d="M363.9,425c-19,0-37.1,0-55.7,0c0-108.1,0-216.1,0-324.6c-21,0-41.6,0-63.6,0c31-32.4,60.9-63.8,91.3-95.6
		c30.2,31.6,60.4,63,91.3,95.3c-21.7,0-42.2,0-63.3,0C363.9,208.7,363.9,316.6,363.9,425z" fill="#242748"/>
	<path d="M182,233.9c-19.3,0-37.9,0-58,0c31-32.4,61-63.9,91.3-95.6c30.4,31.7,60.4,63.1,91.4,95.4c-20.9,0-40.8,0-61.2,0
		c0,64.1,0,127.5,0,191c-21.5,0-42.2,0-63.4,0C182,361.2,182,297.9,182,233.9z" fill="#242748"/>
</g>
</svg>
